<mxfile host="app.diagrams.net" modified="2020-07-22T21:44:17.470Z" agent="5.0 (X11; Linux x86_64) AppleWebKit/537.36 (KHTML, like Gecko) Ubuntu Chromium/83.0.4103.61 Chrome/83.0.4103.61 Safari/537.36" etag="-dkijZSCOod788YYbNRt" version="13.5.1" type="github">
  <diagram id="8NkjtAoJFGOj6Ok4eb-i" name="Page-1">
    <mxGraphModel dx="868" dy="531" grid="1" gridSize="10" guides="1" tooltips="1" connect="1" arrows="1" fold="1" page="1" pageScale="1" pageWidth="827" pageHeight="1169" math="0" shadow="0">
      <root>
        <mxCell id="0" />
        <mxCell id="1" parent="0" />
        <mxCell id="V0ew95yssJh8oA1WVbkw-5" style="edgeStyle=orthogonalEdgeStyle;rounded=0;orthogonalLoop=1;jettySize=auto;html=1;exitX=0.5;exitY=1;exitDx=0;exitDy=0;entryX=0.5;entryY=0;entryDx=0;entryDy=0;" edge="1" parent="1" source="V0ew95yssJh8oA1WVbkw-1" target="V0ew95yssJh8oA1WVbkw-4">
          <mxGeometry relative="1" as="geometry" />
        </mxCell>
        <mxCell id="V0ew95yssJh8oA1WVbkw-1" value="definir trois valeurs x,y,z" style="ellipse;whiteSpace=wrap;html=1;" vertex="1" parent="1">
          <mxGeometry x="380" y="15" width="90" height="60" as="geometry" />
        </mxCell>
        <mxCell id="V0ew95yssJh8oA1WVbkw-17" style="edgeStyle=orthogonalEdgeStyle;rounded=0;orthogonalLoop=1;jettySize=auto;html=1;exitX=0.5;exitY=1;exitDx=0;exitDy=0;" edge="1" parent="1" source="V0ew95yssJh8oA1WVbkw-2" target="V0ew95yssJh8oA1WVbkw-9">
          <mxGeometry relative="1" as="geometry" />
        </mxCell>
        <mxCell id="V0ew95yssJh8oA1WVbkw-2" value="y" style="ellipse;whiteSpace=wrap;html=1;" vertex="1" parent="1">
          <mxGeometry x="490" y="160" width="90" height="50" as="geometry" />
        </mxCell>
        <mxCell id="V0ew95yssJh8oA1WVbkw-14" style="edgeStyle=orthogonalEdgeStyle;rounded=0;orthogonalLoop=1;jettySize=auto;html=1;exitX=0.5;exitY=1;exitDx=0;exitDy=0;entryX=0.5;entryY=0;entryDx=0;entryDy=0;" edge="1" parent="1" source="V0ew95yssJh8oA1WVbkw-3" target="V0ew95yssJh8oA1WVbkw-8">
          <mxGeometry relative="1" as="geometry" />
        </mxCell>
        <mxCell id="V0ew95yssJh8oA1WVbkw-3" value="x" style="ellipse;whiteSpace=wrap;html=1;" vertex="1" parent="1">
          <mxGeometry x="270" y="160" width="90" height="50" as="geometry" />
        </mxCell>
        <mxCell id="V0ew95yssJh8oA1WVbkw-6" style="edgeStyle=orthogonalEdgeStyle;rounded=0;orthogonalLoop=1;jettySize=auto;html=1;entryX=0.5;entryY=0;entryDx=0;entryDy=0;" edge="1" parent="1" source="V0ew95yssJh8oA1WVbkw-4" target="V0ew95yssJh8oA1WVbkw-2">
          <mxGeometry relative="1" as="geometry" />
        </mxCell>
        <mxCell id="V0ew95yssJh8oA1WVbkw-7" style="edgeStyle=orthogonalEdgeStyle;rounded=0;orthogonalLoop=1;jettySize=auto;html=1;exitX=0;exitY=0.5;exitDx=0;exitDy=0;entryX=0.578;entryY=0.02;entryDx=0;entryDy=0;entryPerimeter=0;" edge="1" parent="1" source="V0ew95yssJh8oA1WVbkw-4" target="V0ew95yssJh8oA1WVbkw-3">
          <mxGeometry relative="1" as="geometry" />
        </mxCell>
        <mxCell id="V0ew95yssJh8oA1WVbkw-4" value="x&amp;gt;y" style="rhombus;whiteSpace=wrap;html=1;" vertex="1" parent="1">
          <mxGeometry x="385" y="100" width="80" height="40" as="geometry" />
        </mxCell>
        <mxCell id="V0ew95yssJh8oA1WVbkw-15" style="edgeStyle=orthogonalEdgeStyle;rounded=0;orthogonalLoop=1;jettySize=auto;html=1;exitX=0;exitY=0.5;exitDx=0;exitDy=0;entryX=0.5;entryY=0;entryDx=0;entryDy=0;" edge="1" parent="1" source="V0ew95yssJh8oA1WVbkw-8" target="V0ew95yssJh8oA1WVbkw-10">
          <mxGeometry relative="1" as="geometry" />
        </mxCell>
        <mxCell id="V0ew95yssJh8oA1WVbkw-16" style="edgeStyle=orthogonalEdgeStyle;rounded=0;orthogonalLoop=1;jettySize=auto;html=1;exitX=1;exitY=0.5;exitDx=0;exitDy=0;entryX=0.5;entryY=0;entryDx=0;entryDy=0;" edge="1" parent="1" source="V0ew95yssJh8oA1WVbkw-8" target="V0ew95yssJh8oA1WVbkw-11">
          <mxGeometry relative="1" as="geometry" />
        </mxCell>
        <mxCell id="V0ew95yssJh8oA1WVbkw-8" value="x&amp;gt;z" style="rhombus;whiteSpace=wrap;html=1;" vertex="1" parent="1">
          <mxGeometry x="275" y="230" width="80" height="40" as="geometry" />
        </mxCell>
        <mxCell id="V0ew95yssJh8oA1WVbkw-18" style="edgeStyle=orthogonalEdgeStyle;rounded=0;orthogonalLoop=1;jettySize=auto;html=1;exitX=0;exitY=0.5;exitDx=0;exitDy=0;entryX=0.388;entryY=-0.05;entryDx=0;entryDy=0;entryPerimeter=0;" edge="1" parent="1" source="V0ew95yssJh8oA1WVbkw-9" target="V0ew95yssJh8oA1WVbkw-12">
          <mxGeometry relative="1" as="geometry" />
        </mxCell>
        <mxCell id="V0ew95yssJh8oA1WVbkw-19" style="edgeStyle=orthogonalEdgeStyle;rounded=0;orthogonalLoop=1;jettySize=auto;html=1;exitX=1;exitY=0.5;exitDx=0;exitDy=0;entryX=0.5;entryY=0;entryDx=0;entryDy=0;" edge="1" parent="1" source="V0ew95yssJh8oA1WVbkw-9" target="V0ew95yssJh8oA1WVbkw-13">
          <mxGeometry relative="1" as="geometry" />
        </mxCell>
        <mxCell id="V0ew95yssJh8oA1WVbkw-9" value="y&amp;gt;z" style="rhombus;whiteSpace=wrap;html=1;" vertex="1" parent="1">
          <mxGeometry x="495" y="230" width="80" height="40" as="geometry" />
        </mxCell>
        <mxCell id="V0ew95yssJh8oA1WVbkw-31" style="edgeStyle=orthogonalEdgeStyle;rounded=0;orthogonalLoop=1;jettySize=auto;html=1;exitX=0.5;exitY=1;exitDx=0;exitDy=0;entryX=0.5;entryY=0;entryDx=0;entryDy=0;" edge="1" parent="1" source="V0ew95yssJh8oA1WVbkw-10" target="V0ew95yssJh8oA1WVbkw-20">
          <mxGeometry relative="1" as="geometry" />
        </mxCell>
        <mxCell id="V0ew95yssJh8oA1WVbkw-10" value="x est le max" style="ellipse;whiteSpace=wrap;html=1;" vertex="1" parent="1">
          <mxGeometry x="220" y="280" width="80" height="40" as="geometry" />
        </mxCell>
        <mxCell id="V0ew95yssJh8oA1WVbkw-50" style="edgeStyle=orthogonalEdgeStyle;rounded=0;orthogonalLoop=1;jettySize=auto;html=1;exitX=0.5;exitY=1;exitDx=0;exitDy=0;entryX=0.5;entryY=0;entryDx=0;entryDy=0;" edge="1" parent="1" source="V0ew95yssJh8oA1WVbkw-11" target="V0ew95yssJh8oA1WVbkw-21">
          <mxGeometry relative="1" as="geometry" />
        </mxCell>
        <mxCell id="V0ew95yssJh8oA1WVbkw-11" value="z est le max" style="ellipse;whiteSpace=wrap;html=1;" vertex="1" parent="1">
          <mxGeometry x="330" y="280" width="80" height="40" as="geometry" />
        </mxCell>
        <mxCell id="V0ew95yssJh8oA1WVbkw-51" style="edgeStyle=orthogonalEdgeStyle;rounded=0;orthogonalLoop=1;jettySize=auto;html=1;exitX=0.5;exitY=1;exitDx=0;exitDy=0;entryX=0.5;entryY=0;entryDx=0;entryDy=0;" edge="1" parent="1" source="V0ew95yssJh8oA1WVbkw-12" target="V0ew95yssJh8oA1WVbkw-22">
          <mxGeometry relative="1" as="geometry" />
        </mxCell>
        <mxCell id="V0ew95yssJh8oA1WVbkw-12" value="y est le max" style="ellipse;whiteSpace=wrap;html=1;" vertex="1" parent="1">
          <mxGeometry x="450" y="280" width="80" height="40" as="geometry" />
        </mxCell>
        <mxCell id="V0ew95yssJh8oA1WVbkw-52" style="edgeStyle=orthogonalEdgeStyle;rounded=0;orthogonalLoop=1;jettySize=auto;html=1;exitX=0.5;exitY=1;exitDx=0;exitDy=0;entryX=0.5;entryY=0;entryDx=0;entryDy=0;" edge="1" parent="1" source="V0ew95yssJh8oA1WVbkw-13" target="V0ew95yssJh8oA1WVbkw-23">
          <mxGeometry relative="1" as="geometry" />
        </mxCell>
        <mxCell id="V0ew95yssJh8oA1WVbkw-13" value="z est le max" style="ellipse;whiteSpace=wrap;html=1;" vertex="1" parent="1">
          <mxGeometry x="630" y="280" width="80" height="40" as="geometry" />
        </mxCell>
        <mxCell id="V0ew95yssJh8oA1WVbkw-32" style="edgeStyle=orthogonalEdgeStyle;rounded=0;orthogonalLoop=1;jettySize=auto;html=1;exitX=0;exitY=0.5;exitDx=0;exitDy=0;entryX=0.425;entryY=0;entryDx=0;entryDy=0;entryPerimeter=0;" edge="1" parent="1" source="V0ew95yssJh8oA1WVbkw-20" target="V0ew95yssJh8oA1WVbkw-25">
          <mxGeometry relative="1" as="geometry" />
        </mxCell>
        <mxCell id="V0ew95yssJh8oA1WVbkw-33" style="edgeStyle=orthogonalEdgeStyle;rounded=0;orthogonalLoop=1;jettySize=auto;html=1;exitX=1;exitY=0.5;exitDx=0;exitDy=0;" edge="1" parent="1" source="V0ew95yssJh8oA1WVbkw-20" target="V0ew95yssJh8oA1WVbkw-26">
          <mxGeometry relative="1" as="geometry" />
        </mxCell>
        <mxCell id="V0ew95yssJh8oA1WVbkw-20" value="y&amp;gt;z" style="rhombus;whiteSpace=wrap;html=1;" vertex="1" parent="1">
          <mxGeometry x="220" y="340" width="80" height="40" as="geometry" />
        </mxCell>
        <mxCell id="V0ew95yssJh8oA1WVbkw-34" style="edgeStyle=orthogonalEdgeStyle;rounded=0;orthogonalLoop=1;jettySize=auto;html=1;exitX=0;exitY=0.5;exitDx=0;exitDy=0;" edge="1" parent="1" source="V0ew95yssJh8oA1WVbkw-21">
          <mxGeometry relative="1" as="geometry">
            <mxPoint x="320" y="390" as="targetPoint" />
          </mxGeometry>
        </mxCell>
        <mxCell id="V0ew95yssJh8oA1WVbkw-37" style="edgeStyle=orthogonalEdgeStyle;rounded=0;orthogonalLoop=1;jettySize=auto;html=1;exitX=1;exitY=0.5;exitDx=0;exitDy=0;entryX=0.5;entryY=0;entryDx=0;entryDy=0;" edge="1" parent="1" source="V0ew95yssJh8oA1WVbkw-21" target="V0ew95yssJh8oA1WVbkw-27">
          <mxGeometry relative="1" as="geometry" />
        </mxCell>
        <mxCell id="V0ew95yssJh8oA1WVbkw-39" style="edgeStyle=orthogonalEdgeStyle;rounded=0;orthogonalLoop=1;jettySize=auto;html=1;exitX=0;exitY=0.5;exitDx=0;exitDy=0;" edge="1" parent="1" source="V0ew95yssJh8oA1WVbkw-21">
          <mxGeometry relative="1" as="geometry">
            <mxPoint x="320" y="390" as="targetPoint" />
          </mxGeometry>
        </mxCell>
        <mxCell id="V0ew95yssJh8oA1WVbkw-21" value="x&amp;gt;Y" style="rhombus;whiteSpace=wrap;html=1;" vertex="1" parent="1">
          <mxGeometry x="330" y="340" width="80" height="40" as="geometry" />
        </mxCell>
        <mxCell id="V0ew95yssJh8oA1WVbkw-38" style="edgeStyle=orthogonalEdgeStyle;rounded=0;orthogonalLoop=1;jettySize=auto;html=1;" edge="1" parent="1" source="V0ew95yssJh8oA1WVbkw-22">
          <mxGeometry relative="1" as="geometry">
            <mxPoint x="430" y="400" as="targetPoint" />
          </mxGeometry>
        </mxCell>
        <mxCell id="V0ew95yssJh8oA1WVbkw-40" style="edgeStyle=orthogonalEdgeStyle;rounded=0;orthogonalLoop=1;jettySize=auto;html=1;exitX=0;exitY=0.5;exitDx=0;exitDy=0;" edge="1" parent="1" source="V0ew95yssJh8oA1WVbkw-22">
          <mxGeometry relative="1" as="geometry">
            <mxPoint x="430" y="390" as="targetPoint" />
          </mxGeometry>
        </mxCell>
        <mxCell id="V0ew95yssJh8oA1WVbkw-42" style="edgeStyle=orthogonalEdgeStyle;rounded=0;orthogonalLoop=1;jettySize=auto;html=1;exitX=1;exitY=0.5;exitDx=0;exitDy=0;entryX=0.588;entryY=-0.05;entryDx=0;entryDy=0;entryPerimeter=0;" edge="1" parent="1" source="V0ew95yssJh8oA1WVbkw-22" target="V0ew95yssJh8oA1WVbkw-30">
          <mxGeometry relative="1" as="geometry" />
        </mxCell>
        <mxCell id="V0ew95yssJh8oA1WVbkw-22" value="z&amp;gt;x" style="rhombus;whiteSpace=wrap;html=1;" vertex="1" parent="1">
          <mxGeometry x="450" y="340" width="80" height="40" as="geometry" />
        </mxCell>
        <mxCell id="V0ew95yssJh8oA1WVbkw-54" style="edgeStyle=orthogonalEdgeStyle;rounded=0;orthogonalLoop=1;jettySize=auto;html=1;exitX=1;exitY=0.5;exitDx=0;exitDy=0;entryX=0.625;entryY=-0.05;entryDx=0;entryDy=0;entryPerimeter=0;" edge="1" parent="1" source="V0ew95yssJh8oA1WVbkw-23" target="V0ew95yssJh8oA1WVbkw-46">
          <mxGeometry relative="1" as="geometry" />
        </mxCell>
        <mxCell id="V0ew95yssJh8oA1WVbkw-55" style="edgeStyle=orthogonalEdgeStyle;rounded=0;orthogonalLoop=1;jettySize=auto;html=1;exitX=0;exitY=0.5;exitDx=0;exitDy=0;entryX=0.275;entryY=-0.025;entryDx=0;entryDy=0;entryPerimeter=0;" edge="1" parent="1" source="V0ew95yssJh8oA1WVbkw-23" target="V0ew95yssJh8oA1WVbkw-43">
          <mxGeometry relative="1" as="geometry" />
        </mxCell>
        <mxCell id="V0ew95yssJh8oA1WVbkw-23" value="x&amp;gt;y" style="rhombus;whiteSpace=wrap;html=1;" vertex="1" parent="1">
          <mxGeometry x="630" y="340" width="80" height="40" as="geometry" />
        </mxCell>
        <mxCell id="V0ew95yssJh8oA1WVbkw-25" value="Y est le median" style="ellipse;whiteSpace=wrap;html=1;" vertex="1" parent="1">
          <mxGeometry x="170" y="400" width="80" height="40" as="geometry" />
        </mxCell>
        <mxCell id="V0ew95yssJh8oA1WVbkw-26" value="z est le median" style="ellipse;whiteSpace=wrap;html=1;" vertex="1" parent="1">
          <mxGeometry x="280" y="400" width="80" height="40" as="geometry" />
        </mxCell>
        <mxCell id="V0ew95yssJh8oA1WVbkw-27" value="z est le median" style="ellipse;whiteSpace=wrap;html=1;" vertex="1" parent="1">
          <mxGeometry x="390" y="400" width="80" height="40" as="geometry" />
        </mxCell>
        <mxCell id="V0ew95yssJh8oA1WVbkw-30" value="x est le median" style="ellipse;whiteSpace=wrap;html=1;" vertex="1" parent="1">
          <mxGeometry x="490" y="400" width="80" height="40" as="geometry" />
        </mxCell>
        <mxCell id="V0ew95yssJh8oA1WVbkw-43" value="x est le median" style="ellipse;whiteSpace=wrap;html=1;" vertex="1" parent="1">
          <mxGeometry x="580" y="400" width="80" height="40" as="geometry" />
        </mxCell>
        <mxCell id="V0ew95yssJh8oA1WVbkw-46" value="Y est le median" style="ellipse;whiteSpace=wrap;html=1;" vertex="1" parent="1">
          <mxGeometry x="680" y="400" width="80" height="40" as="geometry" />
        </mxCell>
        <mxCell id="V0ew95yssJh8oA1WVbkw-56" value="&lt;b&gt;YES&lt;/b&gt;" style="text;html=1;strokeColor=none;fillColor=none;align=center;verticalAlign=middle;whiteSpace=wrap;rounded=0;" vertex="1" parent="1">
          <mxGeometry x="295" y="100" width="40" height="20" as="geometry" />
        </mxCell>
        <mxCell id="V0ew95yssJh8oA1WVbkw-57" value="&lt;b&gt;YES&lt;/b&gt;" style="text;html=1;strokeColor=none;fillColor=none;align=center;verticalAlign=middle;whiteSpace=wrap;rounded=0;" vertex="1" parent="1">
          <mxGeometry x="240" y="230" width="40" height="20" as="geometry" />
        </mxCell>
        <mxCell id="V0ew95yssJh8oA1WVbkw-58" value="&lt;b&gt;YES&lt;/b&gt;" style="text;html=1;strokeColor=none;fillColor=none;align=center;verticalAlign=middle;whiteSpace=wrap;rounded=0;" vertex="1" parent="1">
          <mxGeometry x="170" y="340" width="40" height="20" as="geometry" />
        </mxCell>
        <mxCell id="V0ew95yssJh8oA1WVbkw-60" value="&lt;b&gt;YES&lt;/b&gt;" style="text;html=1;strokeColor=none;fillColor=none;align=center;verticalAlign=middle;whiteSpace=wrap;rounded=0;" vertex="1" parent="1">
          <mxGeometry x="450" y="230" width="40" height="20" as="geometry" />
        </mxCell>
        <mxCell id="V0ew95yssJh8oA1WVbkw-61" value="&lt;b&gt;YES&lt;/b&gt;" style="text;html=1;strokeColor=none;fillColor=none;align=center;verticalAlign=middle;whiteSpace=wrap;rounded=0;" vertex="1" parent="1">
          <mxGeometry x="315" y="360" width="40" height="20" as="geometry" />
        </mxCell>
        <mxCell id="V0ew95yssJh8oA1WVbkw-62" value="&lt;b&gt;YES&lt;/b&gt;" style="text;html=1;strokeColor=none;fillColor=none;align=center;verticalAlign=middle;whiteSpace=wrap;rounded=0;" vertex="1" parent="1">
          <mxGeometry x="425" y="360" width="40" height="20" as="geometry" />
        </mxCell>
        <mxCell id="V0ew95yssJh8oA1WVbkw-63" value="&lt;b&gt;YES&lt;/b&gt;" style="text;html=1;strokeColor=none;fillColor=none;align=center;verticalAlign=middle;whiteSpace=wrap;rounded=0;" vertex="1" parent="1">
          <mxGeometry x="600" y="360" width="40" height="20" as="geometry" />
        </mxCell>
        <mxCell id="V0ew95yssJh8oA1WVbkw-64" value="&lt;b&gt;NO&lt;/b&gt;" style="text;html=1;strokeColor=none;fillColor=none;align=center;verticalAlign=middle;whiteSpace=wrap;rounded=0;" vertex="1" parent="1">
          <mxGeometry x="515" y="100" width="40" height="20" as="geometry" />
        </mxCell>
        <mxCell id="V0ew95yssJh8oA1WVbkw-65" value="&lt;b&gt;NO&lt;/b&gt;" style="text;html=1;strokeColor=none;fillColor=none;align=center;verticalAlign=middle;whiteSpace=wrap;rounded=0;" vertex="1" parent="1">
          <mxGeometry x="650" y="230" width="40" height="20" as="geometry" />
        </mxCell>
        <mxCell id="V0ew95yssJh8oA1WVbkw-66" value="&lt;b&gt;NO&lt;/b&gt;" style="text;html=1;strokeColor=none;fillColor=none;align=center;verticalAlign=middle;whiteSpace=wrap;rounded=0;" vertex="1" parent="1">
          <mxGeometry x="710" y="340" width="40" height="20" as="geometry" />
        </mxCell>
        <mxCell id="V0ew95yssJh8oA1WVbkw-67" value="&lt;b&gt;NO&lt;/b&gt;" style="text;html=1;strokeColor=none;fillColor=none;align=center;verticalAlign=middle;whiteSpace=wrap;rounded=0;" vertex="1" parent="1">
          <mxGeometry x="530" y="360" width="40" height="20" as="geometry" />
        </mxCell>
        <mxCell id="V0ew95yssJh8oA1WVbkw-68" value="&lt;b&gt;NO&lt;/b&gt;" style="text;html=1;strokeColor=none;fillColor=none;align=center;verticalAlign=middle;whiteSpace=wrap;rounded=0;" vertex="1" parent="1">
          <mxGeometry x="400" y="360" width="40" height="20" as="geometry" />
        </mxCell>
        <mxCell id="V0ew95yssJh8oA1WVbkw-69" value="&lt;b&gt;NO&lt;/b&gt;" style="text;html=1;strokeColor=none;fillColor=none;align=center;verticalAlign=middle;whiteSpace=wrap;rounded=0;" vertex="1" parent="1">
          <mxGeometry x="290" y="360" width="40" height="20" as="geometry" />
        </mxCell>
        <mxCell id="V0ew95yssJh8oA1WVbkw-70" value="&lt;b&gt;NO&lt;/b&gt;" style="text;html=1;strokeColor=none;fillColor=none;align=center;verticalAlign=middle;whiteSpace=wrap;rounded=0;" vertex="1" parent="1">
          <mxGeometry x="355" y="230" width="40" height="20" as="geometry" />
        </mxCell>
      </root>
    </mxGraphModel>
  </diagram>
</mxfile>
